<svg xmlns="http://www.w3.org/2000/svg" xml:space="preserve" fill-rule="evenodd" stroke-linejoin="round" stroke-miterlimit="2" clip-rule="evenodd" viewBox="0 0 370 125">
  <path fill="#0e0b01" d="M0 0h370v125H0z"/>
  <path fill="#d53c9f" d="M82.4 42.6a2 2 0 0 1 1.6 2v12.8a2 2 0 0 1-1.6 2l-8.6 1.8-2.1 3.6 2.6 8.3c.2.9-.2 1.9-1 2.3L62 81.7a2 2 0 0 1-1 .3c-.6 0-1.1-.3-1.5-.7l-5.9-6.6h-3.4l-5.9 6.6c-.6.7-1.7.8-2.5.4l-11.3-6.4c-.8-.5-1.2-1.4-.9-2.3l2.7-8.4-2-3.4-8.7-1.8a2 2 0 0 1-1.6-2V44.6a2 2 0 0 1 1.6-2l8.7-1.8 2-3.6-2.6-8.4c-.2-.8.2-1.8 1-2.3L42 20.2c.8-.4 1.9-.2 2.5.5l5.9 6.6h3.4l5.9-6.6c.6-.7 1.7-.8 2.5-.4l11.3 6.4c.8.5 1.2 1.4.9 2.3l-2.6 8.3 2 3.5 8.6 1.8Zm-40.8-4c.8-.5 1.4-.8 2.4-.4 7.2 3.8 14.5 7.4 21.9 11 .7.3 1.1 1 1.1 1.8 0 .7-.4 1.4-1.1 1.8-7.4 3.5-14.7 7.2-22 11-.7.3-1.6.2-2.2-.3a2 2 0 0 1-.6-2.1 39 39 0 0 0 0-20.9c-.2-.7 0-1.4.5-1.9Z"/>
  <path fill="#d53c9f" fill-rule="nonzero" d="m116.2 47.8-2.4.5 3.4 11.3.4 2.4h.2l.5-2.4 3.3-11.3-2.5-.5v-4.1h11.5v4.1l-2.2.4L121 69h-6.6L107 48l-2.2-.3v-4.1h11.5v4.1l-.1.1ZM132.6 65l3.3-.7V48.5l-3.6-.7v-4.1h10.5v20.6l3.2.7v4h-13.4v-4Zm10.2-27.4h-6.9v-5.1h6.9v5.1Zm22 28.4c-.8 1.1-1.7 2-2.8 2.6-3.8 2-8.5 1-11-2.5a14.6 14.6 0 0 1-2.6-9v-.5c0-4 .9-7.2 2.6-9.7a8.4 8.4 0 0 1 10.7-2.8c1 .5 2 1.3 2.7 2.3v-9l-3.7-.8v-4.1h10.5v31.8l3.3.7v4h-9.2l-.5-3Zm-9.6-9c0 2.3.4 4 1.1 5.3a4 4 0 0 0 3.7 2c1.8 0 3.4-1 4.4-2.4V51c-.5-.8-1-1.4-1.8-1.9-.7-.4-1.6-.6-2.6-.6-1.6 0-2.9.7-3.6 2.2-.8 1.5-1.2 3.4-1.2 5.8v.5Zm33.6 12.6c-3.6 0-6.5-1.2-8.7-3.6a12.6 12.6 0 0 1-3.3-8.9v-1c0-3.7 1-6.8 3.1-9.2a10 10 0 0 1 8.3-3.7c3.5 0 6.1 1 8 3.1 1.9 2 2.8 4.9 2.8 8.4v3.7h-15v.2c0 1.6.6 3 1.6 4a5 5 0 0 0 4 1.7c2.5 0 5-.6 7.1-1.9l1.9 4.2c-1 .9-2.4 1.5-4 2.1-1.8.6-3.6.9-5.7.9h-.1Zm-.6-21c-1.2 0-2.2.4-3 1.4-.7 1-1.2 2.2-1.3 3.8v.1h8.4v-.6c0-1.5-.3-2.6-1-3.5-.7-.9-1.7-1.3-3-1.3l-.1.1Zm14.1 7.5c0-3.7 1-6.8 3.1-9.2a11 11 0 0 1 8.8-3.7 11 11 0 0 1 8.8 3.6c2.1 2.4 3.2 5.6 3.2 9.3v.5c0 3.9-1 7-3.2 9.4a11 11 0 0 1-8.7 3.6c-3.8 0-6.7-1.2-8.9-3.6-2.2-2.6-3.3-6-3.1-9.4v-.5Zm6.8.5c0 2.4.4 4.2 1.2 5.6.8 1.4 2.2 2.1 4 2.1 1.7 0 3-.7 3.9-2.1a11 11 0 0 0 1.2-5.6v-.5c0-2.2-.4-4-1.3-5.5a4.2 4.2 0 0 0-3.9-2c-1.8 0-3 .6-3.9 2a11 11 0 0 0-1.2 5.5v.5ZM251 37.5v6.2h4.5v4.8H251v13c0 .9.3 1.6.7 2 .4.5 1 .7 1.6.7l2.4-.3.6 5c-1.5.5-3.1.7-4.7.7-2.4 0-4.2-.7-5.5-2-1.2-1.3-1.9-3.3-1.9-6.2V48.5h-3.7v-4.8h3.7v-6.2h6.8Zm7.1 18.6c0-3.7 1.1-6.8 3.2-9.2a11 11 0 0 1 8.8-3.7 11 11 0 0 1 8.8 3.6c2.1 2.4 3.2 5.6 3.2 9.3v.5c0 3.9-1 7-3.2 9.4a11 11 0 0 1-8.8 3.6c-3.7 0-6.7-1.2-8.8-3.6-2.2-2.6-3.4-6-3.2-9.4v-.5Zm6.9.5c0 2.4.4 4.2 1.2 5.6.8 1.4 2.1 2.1 4 2.1a4 4 0 0 0 3.8-2.1 11 11 0 0 0 1.3-5.6v-.5c0-2.2-.5-4-1.3-5.5a4.2 4.2 0 0 0-3.9-2c-1.8 0-3 .6-3.9 2a11 11 0 0 0-1.2 5.5v.5Zm20-.5c0-3.7 1.1-6.8 3.2-9.2a11 11 0 0 1 8.8-3.7 11 11 0 0 1 8.8 3.6c2.1 2.4 3.2 5.6 3.2 9.3v.5c0 3.9-1 7-3.2 9.4a11 11 0 0 1-8.7 3.6c-3.8 0-6.8-1.2-8.9-3.6-2.2-2.6-3.3-6-3.1-9.4v-.5h-.1Zm6.9.5c0 2.4.4 4.2 1.2 5.6.8 1.4 2.1 2.1 4 2.1a4 4 0 0 0 3.8-2.1 11 11 0 0 0 1.3-5.6v-.5c0-2.2-.4-4-1.3-5.5a4.2 4.2 0 0 0-3.9-2c-1.8 0-3 .6-3.9 2a11 11 0 0 0-1.2 5.5v.5Zm18.9-20v-4.1h10.5v31.8l3.3.7v4H311v-4l3.3-.7v-27l-3.6-.7h.1Zm36.7 15.8h-4.6l-.7-3.1A7 7 0 0 0 338 48c-1.3 0-2.2.2-3 .8-.6.5-1 1.2-1 2 0 .7.4 1.4 1 1.9.7.5 2 1 4 1.3 3.2.7 5.5 1.6 7 2.8a6 6 0 0 1 2.3 5c0 2.3-1 4.1-3 5.6-2.3 1.5-5 2.3-7.7 2.2a15 15 0 0 1-9.7-3.4v-5.6h4.7l1 3.3c.4.3 1 .6 1.6.7.7.2 1.5.3 2.2.3 1.4 0 2.5-.3 3.2-.8.7-.5 1.1-1.2 1.1-2s-.4-1.4-1.1-2c-.7-.5-2-1-4-1.4a16 16 0 0 1-6.8-2.7 6 6 0 0 1-2.3-5c0-2 .9-3.9 2.6-5.4a11 11 0 0 1 7.5-2.3c3.4 0 6.8 1 9.7 2.8v6.3h.2Z"/>
  <path fill="#6bc9ff" d="M179 102v-.3h.5v-.4c0-.2 0-.5.2-.6.1-.2.3-.3.6-.3h.2l.1.1v.4h-.6v.8h.5v.3h-.6v2h.4v.3h-1.2v-.3h.4v-2h-.5Zm1.9 0v-.3h.8v.3l.3-.3h.6v.4h-.7l-.2.3v1.5l.4.1v.3H181v-.3h.4v-2h-.5Zm2 1c0-.4 0-.7.3-1 .2-.3.5-.4.9-.4.3 0 .6.1.8.4.2.2.4.6.4 1s-.2.7-.4 1a1 1 0 0 1-.8.4 1 1 0 0 1-.9-.4c-.2-.3-.3-.6-.3-1Zm.5 0 .1.7c.2.2.3.3.6.3.2 0 .4-.1.5-.3l.2-.7c0-.3 0-.5-.2-.7a.6.6 0 0 0-.5-.3c-.3 0-.4 0-.6.3l-.1.7Zm2.2 1h.4v-2h-.4v-.3h.8v.3l.4-.3h.9l.3.4.3-.3.5-.2c.3 0 .5.1.6.3.2.2.3.5.3.8v1.2l.4.1v.3h-1.3v-.3h.4v-1.3l-.1-.5-.4-.2c-.2 0-.3 0-.5.2l-.1.4v1.3l.4.1v.3h-1.3v-.3h.4v-1.3l-.1-.5-.4-.2-.4.1c-.1 0-.2.1-.2.3v1.5l.4.1v.3h-1.3v-.3Z"/>
  <path fill="#fce54d" fill-opacity=".6" d="M182.6 114.2v1c-.4.2-.7.3-1.1.3-.7 0-1.1-.2-1.5-.6-.3-.3-.4-1-.4-2v-2h-.8v-1h.9v-1.7l1.4-.1-.1 1.8h1.5v1H181l.2 3c.1.3.4.4.7.4h.7v-.1Zm-10.3-.1v1.1c-.4.2-1 .3-1.5.3-1 0-1.8-.3-2.3-.8-.6-.6-.8-1.3-.8-2 0-.9.2-1.6.8-2.2a3 3 0 0 1 2.3-1l1.3.2-.2 1.2-1.2-.2c-.5 0-.8.2-1.1.5-.3.3-.4.7-.4 1.2 0 .6.1 1 .5 1.4.3.4.7.5 1.3.5.4 0 .8 0 1.3-.2Zm5.7 1.2h-1.4v-.4h-.1c-.5.4-1 .6-1.8.6-.5 0-.9-.2-1.2-.4-.3-.3-.5-.7-.5-1.1 0-.6.3-1 .8-1.5.5-.3 1.4-.5 2.6-.6v-.2c0-.4 0-.7-.3-.8l-1.1-.2c-.6 0-1.2 0-1.7.2l.1-1c.5-.2 1.3-.3 2.2-.3.8 0 1.3.1 1.7.4.4.3.6.8.6 1.6v1.7l.1 2Zm16.9 0h-1.4l-.1-.4c-.5.4-1.1.6-1.8.6-.5 0-1-.2-1.2-.4-.4-.3-.5-.7-.5-1.1 0-.6.2-1 .7-1.5.5-.3 1.4-.5 2.7-.6v-.2c0-.4-.1-.7-.3-.8l-1.2-.2c-.5 0-1.1 0-1.7.2l.2-1a6 6 0 0 1 2.2-.3c.7 0 1.3.1 1.6.4.4.3.6.8.6 1.6v1.7c0 .8 0 1.5.2 2Zm-6 0h-1.4v-.4h-.2c-.4.4-1 .6-1.6.6-.8 0-1.4-.3-1.8-.8a3 3 0 0 1-.7-2c0-.8.3-1.5.8-2.2.4-.6 1.1-1 2-1 .5 0 1 .2 1.2.4h.1l-.1-2.8h1.6c-.2 2.7-.2 5.5 0 8.2h.1Zm12.5 0H200v-.4h-.2c-.4.4-1 .6-1.6.6-.8 0-1.4-.3-1.8-.8a3 3 0 0 1-.7-2c0-.8.3-1.5.8-2.2.4-.6 1.1-1 2-1 .5 0 1 .2 1.2.4V107h1.6c-.2 2.7-.2 5.5 0 8.2l.1.1Zm-25-1.2v-1.4c-1.3 0-2 .4-2 1 0 .5.3.8.9.8.5 0 .8-.2 1.1-.4Zm16.9 0v-1.4c-1.4 0-2 .4-2 1 0 .5.3.8.8.8s.9-.2 1.2-.4Zm-5.9-.1-.1-3.1c-.3-.2-.6-.3-1-.3-.5 0-.9.2-1.1.6-.3.4-.4.8-.4 1.4 0 .5.1 1 .4 1.3.2.3.5.5 1 .5.6 0 1-.1 1.2-.4Zm12.5 0-.1-3.1c-.3-.2-.6-.3-1-.3-.5 0-.9.2-1.1.6-.3.4-.4.8-.4 1.4 0 .5.1 1 .4 1.3.2.3.5.5 1 .5.6 0 1-.1 1.2-.4Z"/>
</svg>
